<svg xmlns="http://www.w3.org/2000/svg" width="30" height="30" viewBox="0 0 30 30">
  <path fill="#38A0CD" fill-rule="evenodd" d="M30,4.95948 C28.8963,5.46136572 27.70995,5.80067308 26.4651,5.95325372 C27.7356,5.17204698 28.71165,3.93525167 29.17125,2.4614334 C27.9819,3.18480715 26.66475,3.71007217 25.2627,3.99293084 C24.1401,2.76644087 22.5405,2 20.7702,2 C17.3712,2 14.61525,4.82566431 14.61525,8.31117838 C14.61525,8.80568117 14.6697,9.28741763 14.7747,9.74946628 C9.6594,9.48614162 5.12415,6.97363677 2.0886,3.15527541 C1.5588,4.08737088 1.2552,5.17143174 1.2552,6.32809145 C1.2552,8.51774673 2.3418,10.4494607 3.9933,11.581203 C2.9844,11.5484413 2.03535,11.2645059 1.20555,10.7918443 C1.20495,10.818146 1.20495,10.8446015 1.20495,10.8712109 C1.20495,13.92913 3.32655,16.47978 6.1422,17.0598018 C5.62575,17.2039228 5.082,17.281136 4.5207,17.281136 C4.1241,17.281136 3.73845,17.2414527 3.36255,17.167931 C4.14585,19.6750524 6.4188,21.5000215 9.1122,21.5507792 C7.00575,23.2436245 4.35195,24.2524717 1.4682,24.2524717 C0.9714,24.2524717 0.4815,24.2226324 0,24.1641842 C2.72385,25.9550072 5.95905,27 9.43485,27 C20.7558,27 26.94675,17.382959 26.94675,9.04285793 C26.94675,8.76938174 26.9406,8.49713604 26.92875,8.22642844 C28.13145,7.33663104 29.17485,6.22503799 30,4.95948"/>
</svg>
