<svg xmlns="http://www.w3.org/2000/svg" width="30" height="30" viewBox="0 0 30 30">
  <path fill="#335179" fill-rule="evenodd" d="M26.4337514,0 L3.566721,0 C1.59686297,0 0,1.59284719 0,3.55798077 L0,26.4420192 C0,28.4071528 1.59686297,30 3.566721,30 L26.4337514,30 C28.4036095,30 30.0002362,28.4071528 30.0002362,26.4420192 L30.0002362,3.55798077 C30.0002362,1.59284719 28.4036095,0 26.4337514,0 L26.4337514,0 Z M20.8395342,4.25578154 C20.8395342,3.79349444 21.2151277,3.4186096 21.6783597,3.4186096 L25.7345333,3.4186096 C26.1980016,3.4186096 26.5735951,3.79349444 26.5735951,4.25578154 L26.5735951,8.3022701 C26.5735951,8.76479342 26.1980016,9.13944204 25.7345333,9.13944204 L21.6783597,9.13944204 C21.2151277,9.13944204 20.8395342,8.76479342 20.8395342,8.3022701 L20.8395342,4.25578154 L20.8395342,4.25578154 Z M15.0353152,9.27904944 C18.2214821,9.27904944 20.804337,11.8562351 20.804337,15.0348428 C20.804337,18.2136867 18.2214821,20.7903999 15.0353152,20.7903999 C11.8489122,20.7903999 9.26605721,18.2136867 9.26605721,15.0348428 C9.26605721,11.8562351 11.8489122,9.27904944 15.0353152,9.27904944 L15.0353152,9.27904944 Z M26.6435169,25.6742966 C26.6435169,26.1365838 26.2679234,26.5114686 25.8044552,26.5114686 L4.2659391,26.5114686 C3.80247089,26.5114686 3.42664115,26.1365838 3.42664115,25.6742966 L3.42664115,12.6279734 L6.23367113,12.6279734 C6.02248837,13.3949874 5.90933787,14.2019228 5.90933787,15.0348428 C5.90933787,20.0550398 10.0030709,24.1393239 15.0353152,24.1393239 C20.0670871,24.1393239 24.1610564,20.0550398 24.1610564,15.0348428 C24.1610564,14.2019228 24.0479059,13.3949874 23.8367231,12.6279734 L26.6435169,12.6279734 L26.6435169,25.6742966 L26.6435169,25.6742966 Z"/>
</svg>
